<svg xmlns="http://www.w3.org/2000/svg" version="1.1" xmlns:xlink="http://www.w3.org/1999/xlink" xmlns:svgjs="http://svgjs.com/svgjs" width="1440" height="706" preserveAspectRatio="none" viewBox="0 0 1440 706"><g mask="url(&quot;#SvgjsMask2939&quot;)" fill="none"><rect width="1440" height="706" x="0" y="0" fill="rgba(255, 255, 255, 1)"></rect><use xlink:href="#SvgjsG2958" transform="translate(0, 0)" fill="#0f457b"></use><use xlink:href="#SvgjsG2958" transform="translate(930, 0)" fill="#0f457b"></use></g><defs><mask id="SvgjsMask2939"><rect width="1440" height="706" fill="#ffffff"></rect></mask><g id="SvgjsG2955"><path d="M7.713 15.485C3.459 15.485 0 12.025 0 7.768 0 3.513 3.459 0.051 7.713 0.051S15.432 3.513 15.432 7.768c0 4.257-3.465 7.716-7.719 7.717z m0-1.91c3.201 0 5.81-2.604 5.81-5.809 0-3.199-2.61-5.807-5.81-5.807-3.202 0-5.804 2.609-5.804 5.807-0.001 3.206 2.602 5.809 5.804 5.809z"></path><path d="M7.753 8.787a0.574 0.574 0 0 1-0.554-0.042 0.578 0.578 0 0 1-0.259-0.399L6.931 3.862a0.58 0.58 0 0 1 1.162 0v3.478l2.975-1.4a0.578 0.578 0 0 1 0.773 0.275c0.138 0.292 0.011 0.637-0.276 0.774l-3.81 1.798z"></path></g><g id="SvgjsG2945"><path d="M11.986 8.245a46.749 46.749 0 0 1-0.521-0.411c-0.146-0.116-0.293-0.233-0.44-0.348-0.88-0.688-1.797-1.316-2.816-1.407A2.815 2.815 0 0 0 7.954 6.067c-0.086 0-0.171 0.011-0.255 0.018-1.022 0.093-1.942 0.717-2.826 1.408l0.093 0.073c0.108 0.085 0.213 0.168 0.32 0.252C6.165 7.137 7.021 6.576 7.954 6.576c0.93 0 1.784 0.558 2.66 1.236a35.098 35.098 0 0 1 0.535 0.421c0.142 0.113 0.283 0.226 0.426 0.338C12.532 9.32 13.531 10 14.658 10c0.437 0 0.854-0.104 1.257-0.273v-0.557c-0.409 0.197-0.825 0.32-1.257 0.32-0.934 0-1.792-0.563-2.672-1.245z"></path><path d="M11.574 7.496c0.029 0.023 0.059 0.046 0.088 0.07 0.109 0.087 0.216 0.17 0.325 0.256 0.318-0.246 0.635-0.476 0.952-0.67v1.37c0.17 0.111 0.34 0.214 0.51 0.301V6.878c0.315-0.147 0.634-0.248 0.96-0.283v2.537c0.078 0.01 0.157 0.018 0.237 0.018 0.091 0 0.183-0.009 0.273-0.021V6.592c0.34 0.037 0.67 0.144 0.996 0.3V6.336C15.514 6.17 15.099 6.067 14.664 6.067c-1.128 0-2.13 0.68-3.09 1.429z m-7.248 1.08c-0.034-0.027-0.068-0.053-0.102-0.08-0.104-0.083-0.207-0.162-0.31-0.245-0.877 0.678-1.733 1.238-2.665 1.238C0.82 9.49 0.407 9.36 0 9.152v0.562C0.401 9.891 0.815 10 1.249 10c1.124 0 2.122-0.677 3.077-1.423z"></path><path d="M0.989 9.133c0.084 0.011 0.17 0.019 0.254 0.02 0.086 0 0.171-0.008 0.256-0.02V6.592c0.329 0.035 0.65 0.136 0.967 0.285-0.002 0.012-0.007 0.023-0.007 0.036v1.903a5.818 5.818 0 0 0 0.51-0.303V7.152c0.487 0.3 0.971 0.684 1.467 1.08C5.525 9.101 6.652 10 7.948 10c1.123 0 2.121-0.675 3.078-1.42l-0.106-0.084c-0.103-0.082-0.205-0.161-0.306-0.242-0.313 0.242-0.622 0.466-0.934 0.658V7.564A5.816 5.816 0 0 0 9.17 7.261v1.893c0 0.01 0.004 0.019 0.005 0.029-0.316 0.149-0.637 0.252-0.965 0.288V6.937a1.97 1.97 0 0 0-0.267-0.02c-0.082 0-0.163 0.008-0.243 0.017v2.541c-0.33-0.035-0.652-0.136-0.969-0.283 0.002-0.013 0.006-0.024 0.006-0.039V7.248a5.629 5.629 0 0 0-0.51 0.302v1.368c-0.49-0.299-0.976-0.686-1.474-1.083C3.666 6.966 2.539 6.067 1.243 6.067c-0.432 0-0.844 0.096-1.243 0.251v0.55c0.324-0.144 0.652-0.244 0.989-0.278V9.133z"></path></g><g id="SvgjsG2951"><path d="M2.524 8.637H0.014V7.308h2.51v1.329zM3.656 4.576L1.884 2.804l0.935-0.935 1.772 1.772-0.935 0.935z m0 6.817l0.935 0.935-1.772 1.773-0.934-0.936 1.771-1.772z m4.997-8.884h-1.33V-0.002h1.33v2.511z m-1.33 10.952h1.33v2.51h-1.33v-2.509zM12.344 4.576l-0.96-0.935 1.796-1.772 0.935 0.935-1.772 1.772z m0 6.792l1.771 1.797-0.935 0.936-1.771-1.774 0.936-0.96z m3.643-4.06v1.329h-2.51V7.308h2.509z"></path><path d="M3.702 7.984a4.184 4.184 0 1 0 8.368 0 4.184 4.184 0 1 0-8.368 0"></path></g><g id="SvgjsG2948"><path d="M15.233 9.431c0.295 0 0.569-0.239 0.61-0.532 0 0 0.056-0.411 0.056-0.899s-0.056-0.899-0.056-0.899c-0.041-0.292-0.315-0.531-0.61-0.53h-1.524c-0.295 0-0.602-0.188-0.681-0.418s-0.188-0.967 0.021-1.176l1.078-1.077c0.209-0.209 0.225-0.565 0.036-0.792l-1.268-1.268c-0.227-0.189-0.583-0.173-0.792 0.036l-1.078 1.077c-0.208 0.209-0.556 0.293-0.772 0.187s-0.822-0.552-0.821-0.847V0.767c0-0.295-0.239-0.569-0.531-0.61 0 0-0.411-0.057-0.9-0.056s-0.899 0.057-0.899 0.056c-0.293 0.04-0.532 0.315-0.532 0.61v1.524c0 0.295-0.188 0.601-0.418 0.681s-0.967 0.188-1.176-0.021l-1.078-1.078C3.689 1.665 3.333 1.649 3.107 1.837l-1.268 1.268c-0.189 0.227-0.173 0.583 0.036 0.792l1.077 1.078c0.209 0.209 0.293 0.556 0.187 0.772s-0.552 0.822-0.847 0.822H0.767c-0.295 0-0.569 0.239-0.61 0.531 0 0-0.057 0.411-0.056 0.899s0.057 0.899 0.056 0.9c0.04 0.293 0.315 0.532 0.61 0.532h1.525c0.295 0 0.601 0.188 0.681 0.417 0.079 0.23 0.188 0.967-0.02 1.176l-1.078 1.077C1.667 12.311 1.651 12.667 1.84 12.893l1.267 1.268c0.227 0.189 0.583 0.173 0.792-0.036l1.077-1.077c0.209-0.208 0.556-0.292 0.772-0.187s0.821 0.553 0.822 0.848v1.524c0 0.295 0.239 0.569 0.532 0.61 0 0 0.411 0.057 0.899 0.057s0.899-0.056 0.899-0.057c0.293-0.04 0.531-0.315 0.532-0.609v-1.524c0-0.295 0.188-0.602 0.418-0.681 0.23-0.079 0.967-0.188 1.176 0.021l1.077 1.077c0.209 0.209 0.565 0.225 0.792 0.036l1.268-1.267c0.189-0.227 0.173-0.583-0.036-0.792l-1.078-1.077c-0.209-0.209-0.293-0.557-0.186-0.773 0.106-0.216 0.552-0.822 0.847-0.822h1.525zM8 10.892c-1.597 0-2.891-1.294-2.891-2.892 0-1.596 1.295-2.891 2.891-2.891S10.892 6.404 10.892 8 9.597 10.892 8 10.892z"></path></g><g id="SvgjsG2949"><path d="M7.45 12.652S6.4 11.121 3.725 11.121C1.274 11.121 0 11.833 0 11.833V1.937s1.274-0.712 3.725-0.729C6.4 1.19 7.45 2.756 7.45 2.756V12.652z m1.087 0s1.05-1.531 3.725-1.531c2.451 0 3.725 0.712 3.725 0.713V1.937s-1.274-0.712-3.725-0.729c-2.675-0.017-3.725 1.548-3.725 1.548v9.896z"></path><path d="M8.012 15.733S6.4 13.411 3.725 13.411c-2.451 0-3.725 0.712-3.725 0.712v-1.186s1.274-0.712 3.725-0.729c2.675-0.018 4.287 2.34 4.287 2.34V15.733z m0 0s1.612-2.323 4.287-2.323c2.451 0 3.725 0.712 3.725 0.712v-1.185s-1.274-0.712-3.725-0.729c-2.675-0.019-4.287 2.339-4.287 2.339v1.185z"></path></g><g id="SvgjsG2954"><path d="M13.031 12.687V1.875H9.957L9.97 0.071C9.957 0.078 4.189 2.651 4.189 2.651 3.256 3.097 2.919 3.747 2.919 4.632V13.347c0 1.389 1.116 2.528 2.401 2.528h7.737V14.275c-0.948-0.116-0.948-1.469-0.026-1.588z m-7.749 1.422c-0.848-0.005-0.844-1.194 0-1.194h5.399c-0.375 0.278-0.351 0.936 0.051 1.195H5.282z m6.021-2.884H6.577l3.38-1.524V3.628h1.347v7.597h-0.001z" fill-rule="evenodd"></path></g><g id="SvgjsG2956"><path d="M2.796 14.654h-1.184C0.792 14.653 0.001 14.052 0 13.006c0 0 0.001-7.471 0-7.494 0.001-0.926 0.773-1.629 1.612-1.63h1.184v10.772z m7.448-10.754V2.352c0.004-0.558-0.49-0.914-1.093-0.91 0 0-2.303-0.004-2.294 0-0.6-0.004-1.103 0.352-1.102 0.91v1.548H3.597v10.772h8.823V3.9h-2.176z m-0.81 0H6.547v-1.593h2.887v1.593z m3.779 10.754h1.184c0.814-0.002 1.605-0.602 1.603-1.648 0 0 0.003-7.471 0-7.494 0.003-0.926-0.77-1.63-1.602-1.631h-1.184v10.772z"></path></g><g id="SvgjsG2946"><path d="M1.316 13.81h14.019V3.175H1.316v10.635z m12.302-9.643L9.143 8.635c-0.457 0.459-1.269 0.448-1.735-0.018l-4.444-4.45h10.648z m-11.31 0.693l3.626 3.638-3.637 3.644 0.007-7.278z m0.654 7.97l3.641-3.635 0.156 0.149c0.86 0.818 2.228 0.818 3.049 0l0.156-0.156 3.663 3.644h-10.667z m11.353-0.693L10.677 8.501 14.311 4.862V12.142z" fill-rule="evenodd"></path></g><g id="SvgjsG2953"><path d="M5.952 10.09l3.972 2.294-0.394 0.681L5.559 10.771z"></path><path d="M13.584 14.37c1.147-1.084 1.874-2.605 1.874-4.304 0-2.093-1.099-3.981-2.809-5.041l1.915-3.315-0.3-0.174L14.736 0.715 13.498 0 13.024 0.82l-0.317-0.183-4.708 8.156 0.411 0.238-0.584 1.01 1.035 0.597 0.584-1.01 0.41 0.237 1.98-3.429c1.214 0.774 1.993 2.13 1.993 3.63 0 2.373-1.932 4.304-4.305 4.304H6.053V16h9.766V14.37H13.584zM4.916 1.838V0.545h0.159l-0.003-0.311h-1.451l0.003 0.311h0.171v1.293H2.712V0.545h0.158l-0.001-0.311H1.416l0.003 0.311h0.171v1.293H0v6.481h6.491V1.838h-1.576z m1.026 5.932H0.549V2.387h1.041v4.141c0 0.314 0.256 0.568 0.565 0.568 0.31-0.001 0.557-0.255 0.557-0.568V2.387h1.082v4.141c0 0.314 0.256 0.568 0.566 0.568 0.31-0.001 0.556-0.255 0.555-0.568V2.387h1.027v5.383z"></path></g><g id="SvgjsG2940"><path d="M3.312 10.09l3.972 2.294-0.394 0.681L2.919 10.771 3.312 10.09z"></path><path d="M10.944 14.37c1.147-1.084 1.874-2.605 1.874-4.304 0-2.093-1.099-3.981-2.809-5.041l1.915-3.315-0.3-0.174L12.096 0.715 10.858 0 10.384 0.82l-0.317-0.183-4.708 8.156 0.411 0.238-0.584 1.01 1.035 0.597 0.584-1.01 0.41 0.237 1.98-3.429c1.214 0.774 1.993 2.13 1.993 3.63 0 2.373-1.932 4.304-4.305 4.304H3.413V16h9.766V14.37H10.944z"></path></g><g id="SvgjsG2950"><path d="M11.675 13.031H3.563V2.436h8.112v10.595z m-4.054 1.54a0.457 0.457 0 1 1 0-0.912 0.457 0.457 0 0 1 0 0.912zM6.921 1.287h1.395c0.196 0 0.196 0.356 0 0.356h-1.397c-0.199 0-0.199-0.356 0-0.356zM11.495 0.409H3.744C3.413 0.409 3.143 0.761 3.143 1.191V14.276c0 0.427 0.267 0.779 0.601 0.778h7.751c0.332 0 0.604-0.35 0.605-0.778V1.191c0-0.432-0.272-0.782-0.605-0.782z" fill-rule="evenodd"></path></g><g id="SvgjsG2957"><path d="M11.46 4.548H9.536l1.547-0.623a0.324 0.324 0 0 0-0.24-0.604l-1.743 0.706 1.423-1.412a0.331 0.331 0 0 0 0.096-0.231 0.324 0.324 0 0 0-0.551-0.231l-2.002 1.991 0.009-2.827a0.32 0.32 0 0 0-0.32-0.32H7.751c-0.178 0-0.32 0.142-0.323 0.32l-0.009 2.827c-0.645-0.649-1.796-1.813-1.796-1.813a0.325 0.325 0 0 0-0.459 0 0.325 0.325 0 0 0 0 0.458l1.25 1.263-1.801-0.72a0.324 0.324 0 1 0-0.238 0.6l1.55 0.619H4.066a0.484 0.484 0 0 0-0.486 0.484v10.311c0 0.267 0.217 0.48 0.486 0.48h7.395c0.267 0 0.48-0.213 0.48-0.48v-10.311c0-0.267-0.213-0.484-0.48-0.484z m-0.484 4.312H8.075v-3.342h2.901v3.342z m-3.548 0h-2.88v-3.342h2.88v3.342z m-2.88 0.648h2.88v5.347h-2.88V9.508z m3.527 0h2.901v5.347H8.075V9.508z" fill-rule="evenodd"></path></g><g id="SvgjsG2947"><path d="M15.769 13.134v-0.004s-3.022-3.019-3.024-3.02a0.605 0.605 0 0 0-0.858 0.002L10.496 11.509c-0.541 0.541-1.238 0.061-2.577-1.031-0.886-0.722-1.905-1.693-2.788-2.788-0.62-0.768-1.168-1.575-0.602-2.141 0.001-0.001 1.397-1.393 1.398-1.395l0.001-0.003c0.251-0.25 0.226-0.634-0.003-0.862v-0.004L2.813 0.177c-0.24-0.239-0.623-0.234-0.858 0.002L0.553 1.58C-0.024 2.303-1.307 5.747 4.194 11.385c5.795 5.94 9.534 4.669 10.177 3.999 0 0 1.4-1.383 1.4-1.384l0.001-0.003c0.251-0.251 0.225-0.635-0.002-0.864z"></path></g><g id="SvgjsG2943"><path d="M0.019 0.254h2.679v1.439c0.004 0.331 0.242 0.446 0.564 0.31L7.624 0.02c0.127-0.055 0.287 0.013 0.348 0.122l0.347 0.752c0.048 0.119 0.007 0.263-0.122 0.329L2.106 3.968C1.059 4.522 0.023 3.8 0.019 2.811V0.254z m14.515 3.338l1.419-1.138-0.808-1.09L13.875 2.304l0.583-1.899L13.199 0.02 12.541 2.022 11.883 0.02l-1.27 0.385 0.583 1.899-1.307-0.959-0.808 1.091 1.457 1.156h-1.467v11.676H16V3.591h-1.466zM11.835 13.905h-1.467V8.189h1.467v5.716z m0-7.08h-1.467V4.973h1.467V6.826z m2.868 7.079h-1.467V8.189h1.467v5.716z m0-7.079h-1.467V4.974h1.467V6.826zM7.483 12.908V4.908H5.208l0.01-1.335c-0.009 0.005-4.278 1.909-4.278 1.909C0.249 5.812 0 6.293 0 6.948V13.397c0 1.028 0.826 1.87 1.777 1.871h5.725V14.083c-0.701-0.086-0.701-1.087-0.019-1.175z m-5.735 1.053c-0.627-0.004-0.625-0.884 0-0.884h3.996c-0.278 0.206-0.26 0.692 0.037 0.884H1.748z m4.456-2.134H2.707l2.501-1.128V6.205h0.997v5.622z"></path></g><g id="SvgjsG2942"><path d="M8 1.076C3.594 1.076 0.023 3.767 0.023 7.088c0 1.625 0.857 3.099 2.248 4.181l0.003 3.607 4.168-1.892c0.504 0.075 1.025 0.115 1.558 0.116 4.406 0 7.976-2.692 7.976-6.012C15.976 3.767 12.406 1.076 8 1.076z" fill-rule="evenodd"></path></g><g id="SvgjsG2952"><path d="M3.536 11.602h4.034c0.389 0.183 3.806 2.583 4.382 2.972l0.011-2.995h-0.022a2.761 2.761 0 0 0 2.422-2.742V3.09c0-1.527-1.234-2.766-2.765-2.765H3.538c-1.531 0-2.766 1.239-2.765 2.765v5.747c0 1.525 1.239 2.766 2.765 2.765z" fill-rule="evenodd"></path></g><g id="SvgjsG2941"><path d="M8 14.66l5.904-5.908c1.836-1.836 1.8-4.512 0.132-6.174A4.268 4.268 0 0 0 8 2.58a4.264 4.264 0 0 0-6.03-0.02C0.3 4.24 0.26 6.92 2.1 8.744L8 14.66z"></path></g><g id="SvgjsG2944"><path d="M8 12.733c-2.61 0-4.733-2.123-4.733-4.733 0-2.61 2.123-4.733 4.733-4.733 1.816 0 3.396 1.029 4.189 2.533h3.017c-0.941-3.087-3.81-5.333-7.205-5.333-4.161 0-7.533 3.373-7.534 7.533 0 4.16 3.373 7.533 7.534 7.533 2.169 0 4.121-0.918 5.496-2.384l-2.044-1.915C10.59 12.156 9.362 12.733 8.002 12.733z"></path><path d="M16 0v6.045M12.189 5.8h3.016"></path><path d="M16 2.911l-0.001 6.268-6.022-1.737z"></path></g><g id="SvgjsG2958"><use xlink:href="#SvgjsG2940" transform="translate(0, 0) scale(3)" fill="#0f457b"></use><use xlink:href="#SvgjsG2941" transform="translate(0, 93) scale(3)" fill="#0f457b"></use><use xlink:href="#SvgjsG2940" transform="translate(0, 186) scale(3)" fill="#0f457b"></use><use xlink:href="#SvgjsG2942" transform="translate(0, 279) scale(3)" fill="#0f457b"></use><use xlink:href="#SvgjsG2941" transform="translate(0, 372) scale(3)" fill="#0f457b"></use><use xlink:href="#SvgjsG2942" transform="translate(0, 465) scale(3)" fill="#0f457b"></use><use xlink:href="#SvgjsG2943" transform="translate(0, 558) scale(3)" fill="#0f457b"></use><use xlink:href="#SvgjsG2944" transform="translate(0, 651) scale(3)" fill="#0f457b"></use><use xlink:href="#SvgjsG2945" transform="translate(93, 0) scale(3)" fill="#0f457b"></use><use xlink:href="#SvgjsG2946" transform="translate(93, 93) scale(3)" fill="#0f457b"></use><use xlink:href="#SvgjsG2944" transform="translate(93, 186) scale(3)" fill="#0f457b"></use><use xlink:href="#SvgjsG2945" transform="translate(93, 279) scale(3)" fill="#0f457b"></use><use xlink:href="#SvgjsG2942" transform="translate(93, 372) scale(3)" fill="#0f457b"></use><use xlink:href="#SvgjsG2945" transform="translate(93, 465) scale(3)" fill="#0f457b"></use><use xlink:href="#SvgjsG2947" transform="translate(93, 558) scale(3)" fill="#0f457b"></use><use xlink:href="#SvgjsG2948" transform="translate(93, 651) scale(3)" fill="#0f457b"></use><use xlink:href="#SvgjsG2944" transform="translate(186, 0) scale(3)" fill="#0f457b"></use><use xlink:href="#SvgjsG2940" transform="translate(186, 93) scale(3)" fill="#0f457b"></use><use xlink:href="#SvgjsG2947" transform="translate(186, 186) scale(3)" fill="#0f457b"></use><use xlink:href="#SvgjsG2949" transform="translate(186, 279) scale(3)" fill="#0f457b"></use><use xlink:href="#SvgjsG2950" transform="translate(186, 372) scale(3)" fill="#0f457b"></use><use xlink:href="#SvgjsG2951" transform="translate(186, 465) scale(3)" fill="#0f457b"></use><use xlink:href="#SvgjsG2943" transform="translate(186, 558) scale(3)" fill="#0f457b"></use><use xlink:href="#SvgjsG2952" transform="translate(186, 651) scale(3)" fill="#0f457b"></use><use xlink:href="#SvgjsG2952" transform="translate(279, 0) scale(3)" fill="#0f457b"></use><use xlink:href="#SvgjsG2941" transform="translate(279, 93) scale(3)" fill="#0f457b"></use><use xlink:href="#SvgjsG2945" transform="translate(279, 186) scale(3)" fill="#0f457b"></use><use xlink:href="#SvgjsG2946" transform="translate(279, 279) scale(3)" fill="#0f457b"></use><use xlink:href="#SvgjsG2942" transform="translate(279, 372) scale(3)" fill="#0f457b"></use><use xlink:href="#SvgjsG2941" transform="translate(279, 465) scale(3)" fill="#0f457b"></use><use xlink:href="#SvgjsG2953" transform="translate(279, 558) scale(3)" fill="#0f457b"></use><use xlink:href="#SvgjsG2948" transform="translate(279, 651) scale(3)" fill="#0f457b"></use><use xlink:href="#SvgjsG2954" transform="translate(372, 0) scale(3)" fill="#0f457b"></use><use xlink:href="#SvgjsG2942" transform="translate(372, 93) scale(3)" fill="#0f457b"></use><use xlink:href="#SvgjsG2953" transform="translate(372, 186) scale(3)" fill="#0f457b"></use><use xlink:href="#SvgjsG2955" transform="translate(372, 279) scale(3)" fill="#0f457b"></use><use xlink:href="#SvgjsG2941" transform="translate(372, 372) scale(3)" fill="#0f457b"></use><use xlink:href="#SvgjsG2954" transform="translate(372, 465) scale(3)" fill="#0f457b"></use><use xlink:href="#SvgjsG2956" transform="translate(372, 558) scale(3)" fill="#0f457b"></use><use xlink:href="#SvgjsG2948" transform="translate(372, 651) scale(3)" fill="#0f457b"></use><use xlink:href="#SvgjsG2953" transform="translate(465, 0) scale(3)" fill="#0f457b"></use><use xlink:href="#SvgjsG2957" transform="translate(465, 93) scale(3)" fill="#0f457b"></use><use xlink:href="#SvgjsG2957" transform="translate(465, 186) scale(3)" fill="#0f457b"></use><use xlink:href="#SvgjsG2957" transform="translate(465, 279) scale(3)" fill="#0f457b"></use><use xlink:href="#SvgjsG2949" transform="translate(465, 372) scale(3)" fill="#0f457b"></use><use xlink:href="#SvgjsG2941" transform="translate(465, 465) scale(3)" fill="#0f457b"></use><use xlink:href="#SvgjsG2957" transform="translate(465, 558) scale(3)" fill="#0f457b"></use><use xlink:href="#SvgjsG2955" transform="translate(465, 651) scale(3)" fill="#0f457b"></use><use xlink:href="#SvgjsG2942" transform="translate(558, 0) scale(3)" fill="#0f457b"></use><use xlink:href="#SvgjsG2955" transform="translate(558, 93) scale(3)" fill="#0f457b"></use><use xlink:href="#SvgjsG2949" transform="translate(558, 186) scale(3)" fill="#0f457b"></use><use xlink:href="#SvgjsG2945" transform="translate(558, 279) scale(3)" fill="#0f457b"></use><use xlink:href="#SvgjsG2956" transform="translate(558, 372) scale(3)" fill="#0f457b"></use><use xlink:href="#SvgjsG2942" transform="translate(558, 465) scale(3)" fill="#0f457b"></use><use xlink:href="#SvgjsG2940" transform="translate(558, 558) scale(3)" fill="#0f457b"></use><use xlink:href="#SvgjsG2949" transform="translate(558, 651) scale(3)" fill="#0f457b"></use><use xlink:href="#SvgjsG2953" transform="translate(651, 0) scale(3)" fill="#0f457b"></use><use xlink:href="#SvgjsG2953" transform="translate(651, 93) scale(3)" fill="#0f457b"></use><use xlink:href="#SvgjsG2948" transform="translate(651, 186) scale(3)" fill="#0f457b"></use><use xlink:href="#SvgjsG2957" transform="translate(651, 279) scale(3)" fill="#0f457b"></use><use xlink:href="#SvgjsG2943" transform="translate(651, 372) scale(3)" fill="#0f457b"></use><use xlink:href="#SvgjsG2951" transform="translate(651, 465) scale(3)" fill="#0f457b"></use><use xlink:href="#SvgjsG2942" transform="translate(651, 558) scale(3)" fill="#0f457b"></use><use xlink:href="#SvgjsG2954" transform="translate(651, 651) scale(3)" fill="#0f457b"></use><use xlink:href="#SvgjsG2943" transform="translate(744, 0) scale(3)" fill="#0f457b"></use><use xlink:href="#SvgjsG2944" transform="translate(744, 93) scale(3)" fill="#0f457b"></use><use xlink:href="#SvgjsG2946" transform="translate(744, 186) scale(3)" fill="#0f457b"></use><use xlink:href="#SvgjsG2947" transform="translate(744, 279) scale(3)" fill="#0f457b"></use><use xlink:href="#SvgjsG2943" transform="translate(744, 372) scale(3)" fill="#0f457b"></use><use xlink:href="#SvgjsG2947" transform="translate(744, 465) scale(3)" fill="#0f457b"></use><use xlink:href="#SvgjsG2941" transform="translate(744, 558) scale(3)" fill="#0f457b"></use><use xlink:href="#SvgjsG2946" transform="translate(744, 651) scale(3)" fill="#0f457b"></use><use xlink:href="#SvgjsG2948" transform="translate(837, 0) scale(3)" fill="#0f457b"></use><use xlink:href="#SvgjsG2951" transform="translate(837, 93) scale(3)" fill="#0f457b"></use><use xlink:href="#SvgjsG2946" transform="translate(837, 186) scale(3)" fill="#0f457b"></use><use xlink:href="#SvgjsG2943" transform="translate(837, 279) scale(3)" fill="#0f457b"></use><use xlink:href="#SvgjsG2941" transform="translate(837, 372) scale(3)" fill="#0f457b"></use><use xlink:href="#SvgjsG2946" transform="translate(837, 465) scale(3)" fill="#0f457b"></use><use xlink:href="#SvgjsG2943" transform="translate(837, 558) scale(3)" fill="#0f457b"></use><use xlink:href="#SvgjsG2955" transform="translate(837, 651) scale(3)" fill="#0f457b"></use></g></defs></svg>